<svg width="365" height="366" viewBox="0 0 365 366" fill="none" xmlns="http://www.w3.org/2000/svg">
<g clip-path="url(#clip0_2_40)">
<path d="M182.5 365.871C283.292 365.871 365 284.163 365 183.371C365 82.5789 283.292 0.87085 182.5 0.87085C81.708 0.87085 0 82.5789 0 183.371C0 284.163 81.708 365.871 182.5 365.871Z" fill="#00B22D"/>
<path d="M332.515 149.334C332.515 143.312 327.77 138.384 321.748 138.384C315.908 138.384 311.071 143.221 311.071 149.334C311.071 155.357 315.816 160.284 321.748 160.284C327.77 160.376 332.515 155.448 332.515 149.334ZM321.748 157.273C317.641 157.273 314.448 153.806 314.448 149.334C314.448 144.954 317.641 141.487 321.748 141.487C325.945 141.487 329.23 144.954 329.23 149.334C329.23 153.806 325.945 157.273 321.748 157.273Z" fill="white"/>
<path d="M324.668 150.247C325.215 150.064 326.401 149.243 326.401 147.509C326.401 145.411 325.033 144.133 322.751 144.133H317.915V154.444H321.109V150.977H321.93L323.39 154.444H326.858L324.941 150.886C324.759 150.338 324.668 150.247 324.668 150.247ZM321.93 148.787H321.109V146.323H321.93C322.66 146.323 323.025 146.688 323.025 147.509C323.116 148.331 322.66 148.787 321.93 148.787Z" fill="white"/>
<path d="M95.4476 157.821C99.9832 157.821 103.66 154.144 103.66 149.608C103.66 145.073 99.9832 141.396 95.4476 141.396C90.912 141.396 87.2351 145.073 87.2351 149.608C87.2351 154.144 90.912 157.821 95.4476 157.821Z" fill="white"/>
<path d="M104.025 163.204H66.4298V160.741C66.4298 155.904 71.266 155.813 73.7298 155.813C76.5585 155.813 77.836 156.087 77.836 156.087V142.764C77.836 142.764 75.281 142.399 71.8135 142.399C63.966 142.399 49.4573 144.589 49.4573 161.197V163.296H42.6135V175.614H49.4573V201.621H43.0698V213.939H73.9123V201.621H66.4298V175.614H86.961V201.621H80.5735V213.939H110.412V201.621H104.025V163.204ZM167.9 163.204H140.981V175.523H145.544L139.704 193.773C138.609 196.784 138.335 200.434 138.335 200.434H137.97C137.97 200.434 137.696 196.784 136.601 193.773L130.761 175.523H135.324V163.204H108.405V175.523H114.062L128.115 213.848H148.19L162.242 175.523H167.9V163.204ZM217.722 186.473C217.722 172.421 209.236 162.018 194.18 162.018C177.846 162.018 167.809 173.607 167.809 188.481C167.809 201.986 177.572 215.034 195.64 215.034C209.327 215.034 217.449 207.917 217.449 207.917L211.244 196.146C211.244 196.146 204.491 200.982 197.009 200.982C191.625 200.982 186.515 198.153 185.237 191.674H217.357C217.266 191.583 217.722 188.116 217.722 186.473ZM185.602 182.276C186.515 178.352 188.887 174.793 193.724 174.793C197.465 174.793 200.111 178.261 200.111 182.276H185.602ZM289.719 174.884H289.536C289.536 174.884 289.719 173.881 289.719 172.329V169.683C289.719 165.029 287.164 163.204 282.51 163.204H266.541V175.523H271.286C272.655 175.523 273.476 176.344 273.476 177.713V201.621H266.632V213.939H297.383V201.621H290.54V194.229C290.54 185.013 295.102 178.991 304.501 178.991C306.6 178.991 307.969 179.264 307.969 179.264V162.566C307.969 162.566 306.965 162.383 305.961 162.383C298.296 162.292 291.909 167.949 289.719 174.884ZM244.732 174.884H244.55C244.55 174.884 244.732 173.881 244.732 172.329V169.683C244.732 165.029 242.177 163.204 237.524 163.204H221.555V175.523H226.3C227.669 175.523 228.49 176.344 228.49 177.713V201.621H221.646V213.939H252.397V201.621H245.554V194.229C245.554 185.013 250.116 178.991 259.515 178.991C261.614 178.991 262.982 179.264 262.982 179.264V162.566C262.982 162.566 261.979 162.383 260.975 162.383C253.219 162.292 246.831 167.949 244.732 174.884Z" fill="white"/>
</g>
<defs>
<clipPath id="clip0_2_40">
<rect width="365" height="365" fill="white" transform="translate(0 0.87085)"/>
</clipPath>
</defs>
</svg>
