<svg width="300" height="300" viewBox="0 0 300 300" fill="none" xmlns="http://www.w3.org/2000/svg">
<g clip-path="url(#clip0_2_49)">
<path d="M150 299.997C232.843 299.997 300 232.84 300 149.997C300 67.1547 232.843 -0.00256348 150 -0.00256348C67.1573 -0.00256348 0 67.1547 0 149.997C0 232.84 67.1573 299.997 150 299.997Z" fill="#007AB9"/>
<path d="M239.624 162.067V223.909H203.77V166.212C203.77 151.725 198.593 141.831 185.611 141.831C175.704 141.831 169.819 148.492 167.22 154.941C166.276 157.246 166.033 160.447 166.033 163.68V223.906H130.176C130.176 223.906 130.657 126.186 130.176 116.071H166.036V131.352C165.963 131.473 165.862 131.59 165.798 131.705H166.036V131.352C170.8 124.02 179.298 113.539 198.35 113.539C221.939 113.539 239.624 128.951 239.624 162.067ZM92.6667 64.0905C80.4015 64.0905 72.3772 72.1415 72.3772 82.7195C72.3772 93.0728 80.1689 101.356 92.1961 101.356H92.4287C104.935 101.356 112.71 93.0728 112.71 82.7195C112.472 72.1415 104.935 64.0905 92.6667 64.0905ZM74.5083 223.909H110.352V116.071H74.5083V223.909Z" fill="#F1F2F2"/>
</g>
<defs>
<clipPath id="clip0_2_49">
<rect width="300" height="300" fill="white"/>
</clipPath>
</defs>
</svg>
