<svg width="365" height="366" viewBox="0 0 365 366" fill="none" xmlns="http://www.w3.org/2000/svg">
<g clip-path="url(#clip0_2_37)">
<path d="M338.048 0.778473H26.9662C12.0742 0.778473 0 12.4877 0 26.9271V339.615C0 354.069 12.0742 365.778 26.9662 365.778H338.048C352.94 365.778 365 354.055 365 339.615V26.9271C365 12.4877 352.94 0.778473 338.048 0.778473Z" fill="#6FDA44"/>
<path d="M267.852 213.019C253.485 213.019 240.039 206.93 227.804 197.017L230.782 183.03L230.914 182.519C233.571 167.627 241.98 142.617 267.852 142.617C287.255 142.617 303.038 158.429 303.038 177.847C302.979 197.207 287.197 213.019 267.852 213.019ZM267.852 106.92C234.797 106.92 209.174 128.426 198.764 163.787C182.85 139.887 170.82 111.198 163.768 87.0353H128.203V179.716C128.203 197.981 113.325 212.873 95.0752 212.873C76.8253 212.873 61.9625 197.981 61.9625 179.716V87.0353H26.3823V179.716C26.2509 217.676 57.1152 248.832 95.0168 248.832C132.918 248.832 163.783 217.676 163.783 179.716V164.167C170.703 178.606 179.171 193.177 189.464 206.142L167.666 308.736H204.093L219.876 234.32C233.717 243.197 249.631 248.759 267.881 248.759C306.892 248.759 338.647 216.756 338.647 177.701C338.618 138.719 306.863 106.92 267.852 106.92Z" fill="white"/>
</g>
<defs>
<clipPath id="clip0_2_37">
<rect y="0.778473" width="365" height="365" rx="182.5" fill="white"/>
</clipPath>
</defs>
</svg>
